<svg xmlns="http://www.w3.org/2000/svg" viewBox="0 0 158.38 21.94"><g id="Layer_2" data-name="Layer 2"><g id="Capa_1" data-name="Capa 1"><path d="M20.07.42v21.1H15.16L5.85,10.28V21.52H0V.42H4.91l9.32,11.24V.42Z"/><path d="M41.23,16.91v4.61H24.29V.42H40.84V5H30.2V8.59h9.37v4.46H30.2v3.86Z"/><path d="M49.14,20.53A10.77,10.77,0,0,1,45,16.61,10.69,10.69,0,0,1,43.43,11a10.53,10.53,0,0,1,5.71-9.55,13.45,13.45,0,0,1,12,0A10.53,10.53,0,0,1,66.88,11a10.69,10.69,0,0,1-1.52,5.64,10.77,10.77,0,0,1-4.19,3.92,13.53,13.53,0,0,1-12,0Zm8.91-4.28a5.46,5.46,0,0,0,2.05-2.13A6.44,6.44,0,0,0,60.85,11a6.49,6.49,0,0,0-.75-3.15A5.43,5.43,0,0,0,58.05,5.7a5.89,5.89,0,0,0-5.79,0,5.43,5.43,0,0,0-2,2.12A6.49,6.49,0,0,0,49.46,11a6.44,6.44,0,0,0,.75,3.15,5.46,5.46,0,0,0,2,2.13,6,6,0,0,0,5.79,0Z"/><path d="M70,.42h6V16.79H86.05v4.73H70Z"/><path d="M102.77,17.42H93.85l-1.66,4.1H86.11L95.42.42h5.88l9.34,21.1h-6.21ZM101,13,98.31,6.27,95.6,13Z"/><path d="M132.4.42v21.1h-4.91l-9.32-11.24V21.52h-5.84V.42h4.91l9.31,11.24V.42Z"/><path d="M136.62.42h10a13.82,13.82,0,0,1,6.14,1.3A9.69,9.69,0,0,1,156.9,5.4,10.28,10.28,0,0,1,158.38,11a10.34,10.34,0,0,1-1.48,5.58,9.73,9.73,0,0,1-4.16,3.67,13.82,13.82,0,0,1-6.14,1.3h-10Zm9.73,16.34a6.11,6.11,0,0,0,4.36-1.54A5.54,5.54,0,0,0,152.35,11a5.56,5.56,0,0,0-1.64-4.25,6.16,6.16,0,0,0-4.36-1.54h-3.76V16.76Z"/></g></g></svg>